<svg width="717" height="717" viewBox="0 0 717 717" fill="none" xmlns="http://www.w3.org/2000/svg">
<g clip-path="url(#clip0_2059_220)">
<path d="M88 131.548C88 86.5102 124.51 50 169.548 50H255.073C300.111 50 336.621 86.5102 336.621 131.548C336.621 176.585 300.111 213.095 255.073 213.095H169.548C124.51 213.095 88 176.585 88 131.548Z" fill="#F9F9F9"/>
<path d="M88 303.397C88 268.903 115.963 240.941 150.456 240.941H282.919C312.578 240.941 336.621 264.984 336.621 294.643C336.621 324.302 312.578 348.345 282.919 348.345H132.948C108.124 348.345 88 328.221 88 303.397Z" fill="#F9F9F9"/>
<rect x="368.445" y="50" width="248.621" height="298.345" rx="88.4382" fill="#F9F9F9"/>
<path d="M88 443.816C88 408.665 116.496 380.169 151.647 380.169H540.562C589.405 380.169 629 419.764 629 468.607V470.443C629 518.35 590.163 557.187 542.255 557.187H540.098C506.811 557.187 479.827 584.171 479.827 617.458C479.827 668.558 420.228 696.473 380.971 663.76L270.787 571.939C259.349 562.407 244.93 557.187 230.041 557.187H176.438C127.595 557.187 88 517.592 88 468.749V443.816Z" fill="#F9F9F9"/>
<path d="M87.6582 437.97L87.6582 303.01C87.6582 268.522 115.617 240.563 150.106 240.563C174.926 240.563 195.047 260.684 195.047 285.505L195.047 374.323C195.047 409.474 166.552 437.97 131.4 437.97L87.6582 437.97Z" fill="#F9F9F9"/>
</g>
<defs>
<clipPath id="clip0_2059_220">
<rect width="717" height="717" fill="white"/>
</clipPath>
</defs>
</svg>
